<?xml version="1.0" standalone="no"?>
<!DOCTYPE svg PUBLIC "-//W3C//DTD SVG 20010904//EN"
 "http://www.w3.org/TR/2001/REC-SVG-20010904/DTD/svg10.dtd">
<svg version="1.0" xmlns="http://www.w3.org/2000/svg"
 width="2048.000000pt" height="2048.000000pt" viewBox="0 0 2048.000000 2048.000000"
 preserveAspectRatio="xMidYMid meet">

<g transform="translate(0.000000,2048.000000) scale(0.100000,-0.100000)"
fill="red" stroke="none">
<path d="M13860 16389 c-530 -57 -1076 -297 -1560 -684 -160 -127 -457 -424
-586 -585 -407 -509 -718 -1145 -998 -2040 -83 -267 -244 -851 -332 -1202 -14
-60 -29 -108 -33 -108 -4 0 -13 33 -19 73 -32 186 -114 473 -199 697 -385
1017 -1148 1870 -2055 2299 -859 406 -1731 426 -2593 59 -899 -383 -1584
-1139 -1800 -1989 -56 -219 -69 -335 -69 -604 0 -209 4 -274 22 -395 117 -758
468 -1458 1261 -2515 1506 -2009 3213 -3801 5155 -5413 240 -200 503 -412 510
-412 2 0 75 80 162 178 341 382 611 660 1478 1528 1219 1219 1422 1428 1807
1864 705 799 1152 1432 1731 2450 586 1030 939 1942 1067 2755 45 289 56 428
55 745 0 335 -13 469 -74 763 -207 994 -821 1869 -1600 2281 -214 112 -490
204 -730 242 -114 18 -480 26 -600 13z"/>
</g>
</svg>
